# xmcd CD database file
#
# Track frame offsets:
#	150
#	11430
#	30295
#	50221
#	66041
#	94396
#	106600
#	126922
#	151144
#	172523
#	191218
#	216329
#	237945
#	255820
#	274032
#	296209
#	309591
#
# Disc length: 4364 seconds
#
# Revision: 0
# Processed by: cddbd v1.5.1PL0 Copyright (c) Steve Scherf et al.
# Submitted via: CDex 1.51
#
DISCID=e4110a11
DTITLE=Jack Teagarden - Complete Roulette Sessions #3
DYEAR=1960
DGENRE=Jazz
TTITLE0=Ever Lovin' Baby
TTITLE1=Aunt Hagar's Country Home
TTITLE2=High Society
TTITLE3=Blue Dawn
TTITLE4=Riverboat Shuffle
TTITLE5=Roundtable Romp
TTITLE6=Aint'cha Glad
TTITLE7=A Hundred Years Ago from Today
TTITLE8=Tin Roof Blues
TTITLE9=Jazz Me Blues
TTITLE10=Clarinet Marmalade
TTITLE11=Mahogany Hall Stomp
TTITLE12=Atlanta Blues
TTITLE13=The Pearls
TTITLE14=Tap Room Blues
TTITLE15=Runnin' Wild
TTITLE16=Milenberg Joys
EXTD=YEAR: 1960
EXTT0=
EXTT1=
EXTT2=
EXTT3=
EXTT4=
EXTT5=
EXTT6=
EXTT7=
EXTT8=
EXTT9=
EXTT10=
EXTT11=
EXTT12=
EXTT13=
EXTT14=
EXTT15=
EXTT16=
PLAYORDER=
